<svg width="24" height="16" viewBox="0 0 24 16" fill="none" xmlns="http://www.w3.org/2000/svg">
<g filter="url(#filter0_i)">
<path fill-rule="evenodd" clip-rule="evenodd" d="M12 0C15.64 0 18.67 2.59 19.35 6.04C21.95 6.22 24 8.36 24 11C24 13.76 21.76 16 19 16H6C2.69 16 0 13.31 0 10C0 6.91 2.34 4.36 5.35 4.04C6.6 1.64 9.11 0 12 0ZM6 14H19C20.66 14 22 12.66 22 11C22 9.34 20.66 8 19 8H17.5V7.5C17.5 4.46 15.04 2 12 2C9.48 2 7.37 3.69 6.71 6H6C3.79 6 2 7.79 2 10C2 12.21 3.79 14 6 14Z" fill="#CFCDFF"/>
</g>
<defs>
<filter id="filter0_i" x="0" y="0" width="24" height="20" filterUnits="userSpaceOnUse" color-interpolation-filters="sRGB">
<feFlood flood-opacity="0" result="BackgroundImageFix"/>
<feBlend mode="normal" in="SourceGraphic" in2="BackgroundImageFix" result="shape"/>
<feColorMatrix in="SourceAlpha" type="matrix" values="0 0 0 0 0 0 0 0 0 0 0 0 0 0 0 0 0 0 127 0" result="hardAlpha"/>
<feOffset dy="4"/>
<feGaussianBlur stdDeviation="2"/>
<feComposite in2="hardAlpha" operator="arithmetic" k2="-1" k3="1"/>
<feColorMatrix type="matrix" values="0 0 0 0 0 0 0 0 0 0 0 0 0 0 0 0 0 0 0.25 0"/>
<feBlend mode="normal" in2="shape" result="effect1_innerShadow"/>
</filter>
</defs>
</svg>
