<svg width="24" height="24" viewBox="0 0 24 24" fill="none" xmlns="http://www.w3.org/2000/svg">
<g filter="url(#filter0_i)">
<path d="M8.46804 5.06743C6.55478 5.06743 4.9982 6.62401 4.9982 8.53731C4.9982 10.4506 6.55478 12.0072 8.46804 12.0072C10.3813 12.0072 11.9379 10.4506 11.9379 8.53731C11.9379 6.62401 10.3814 5.06743 8.46804 5.06743ZM8.46804 11.051C7.08199 11.051 5.95441 9.92341 5.95441 8.53736C5.95441 7.15131 7.08203 6.02368 8.46804 6.02368C9.85404 6.02368 10.9817 7.15131 10.9817 8.53736C10.9818 9.92341 9.85409 11.051 8.46804 11.051Z" fill="#CFCDFF"/>
<path d="M16.4581 6.19609H15.0844C15.0023 5.96383 14.9079 5.73606 14.8021 5.51434L15.7734 4.54305C15.9601 4.35629 15.9601 4.05358 15.7734 3.86687L13.1385 1.23202C12.9518 1.04537 12.6491 1.04537 12.4624 1.23202L11.4911 2.20332C11.2693 2.09743 11.0415 2.00317 10.8093 1.92099V0.547365C10.8093 0.283318 10.5953 0.0692863 10.3312 0.0692863H6.60493C6.34089 0.0692863 6.12686 0.283318 6.12686 0.547365V1.92104C5.89464 2.00312 5.66687 2.09752 5.4451 2.20337L4.47376 1.23207C4.28706 1.04537 3.98434 1.04537 3.79763 1.23207L1.16278 3.86692C0.97608 4.05367 0.97608 4.35639 1.16278 4.54309L2.13408 5.51439C2.02819 5.73611 1.93388 5.96392 1.85175 6.19614H0.478079C0.214032 6.1961 0 6.41013 0 6.67417V10.4005C0 10.6645 0.214032 10.8785 0.478079 10.8785H1.8518C1.93388 11.1108 2.02824 11.3386 2.13413 11.5603L1.16283 12.5316C1.07321 12.6212 1.02281 12.7429 1.02281 12.8697C1.02281 12.9965 1.07321 13.1181 1.16283 13.2077L3.79768 15.8426C3.8873 15.9322 4.00894 15.9826 4.13574 15.9826C4.26254 15.9826 4.38413 15.9322 4.47381 15.8426L5.4451 14.8713C5.66687 14.9772 5.89468 15.0715 6.12686 15.1536V16.5273C6.12686 16.7913 6.34089 17.0054 6.60493 17.0054H10.3312C10.5953 17.0054 10.8093 16.7913 10.8093 16.5273V15.1536C11.0416 15.0715 11.2693 14.9771 11.4911 14.8713L12.4624 15.8426C12.552 15.9322 12.6736 15.9826 12.8004 15.9826C12.9272 15.9826 13.0489 15.9322 13.1385 15.8426L15.7733 13.2077C15.863 13.1181 15.9133 12.9965 15.9133 12.8697C15.9133 12.7429 15.863 12.6213 15.7733 12.5316L14.802 11.5603C14.9079 11.3386 15.0022 11.1108 15.0844 10.8785H16.4581C16.7221 10.8785 16.9362 10.6645 16.9362 10.4005V6.67417C16.9362 6.41013 16.7221 6.19609 16.4581 6.19609ZM15.98 9.92234H14.7372C14.5255 9.92234 14.339 10.0615 14.2788 10.2644C14.1593 10.6672 13.9976 11.0576 13.7983 11.4247C13.6972 11.6108 13.7307 11.8412 13.8804 11.9909L14.7591 12.8696L12.8004 14.8284L11.9216 13.9496C11.7719 13.7999 11.5415 13.7665 11.3554 13.8675C10.9882 14.0669 10.5978 14.2285 10.1952 14.348C9.99227 14.4083 9.8531 14.5948 9.8531 14.8064V16.0492H7.08301V14.8064C7.08301 14.5948 6.94384 14.4083 6.74092 14.348C6.33826 14.2286 5.94793 14.0669 5.58067 13.8675C5.39462 13.7665 5.16428 13.7999 5.01446 13.9496L4.1357 14.8284L2.17697 12.8696L3.05574 11.9909C3.20546 11.8412 3.23883 11.6108 3.13782 11.4247C2.93846 11.0575 2.77679 10.6671 2.6573 10.2645C2.59711 10.0616 2.4106 9.92238 2.19896 9.92238H0.956158V7.1523H2.19896C2.4106 7.1523 2.59711 7.01313 2.6573 6.81016C2.77679 6.40745 2.93846 6.01713 3.13782 5.64995C3.23883 5.46386 3.20546 5.23347 3.05574 5.08375L2.17697 4.20498L4.1357 2.24626L5.01451 3.12503C5.16423 3.27475 5.39457 3.30817 5.58067 3.2071C5.94793 3.00775 6.33831 2.84607 6.74092 2.72659C6.94384 2.66635 7.08297 2.47988 7.08297 2.26824V1.02544H9.85305V2.26824C9.85305 2.47988 9.99222 2.66635 10.1951 2.72659C10.5978 2.84607 10.9882 3.00775 11.3554 3.2071C11.5415 3.30817 11.7719 3.2747 11.9216 3.12503L12.8004 2.24626L14.7591 4.20498L13.8803 5.08375C13.7306 5.23347 13.6972 5.46386 13.7982 5.64995C13.9976 6.01708 14.1592 6.40741 14.2788 6.81016C14.339 7.01308 14.5255 7.15225 14.7371 7.15225H15.9799V9.92234H15.98Z" fill="#CFCDFF"/>
<path d="M23.3369 18.7148C23.2869 18.5983 23.1926 18.5064 23.0748 18.4595L22.4634 18.2153C22.4637 18.1604 22.4631 18.1056 22.4613 18.0508L23.0663 17.7911C23.1828 17.741 23.2747 17.6468 23.3216 17.529C23.3687 17.4113 23.367 17.2797 23.317 17.1632L22.4634 15.1751C22.3593 14.9325 22.0781 14.8201 21.8355 14.9244L21.2305 15.1841C21.192 15.1451 21.1527 15.1068 21.1126 15.0693L21.3568 14.4578C21.4547 14.2126 21.3353 13.9344 21.0901 13.8365L19.0808 13.0342C18.8356 12.9364 18.5574 13.0557 18.4595 13.3009L18.2153 13.9124C18.1606 13.912 18.1056 13.9127 18.0508 13.9144L17.791 13.3095C17.741 13.1929 17.6468 13.1011 17.529 13.0541C17.4113 13.007 17.2796 13.0087 17.1631 13.0588L15.175 13.9123C14.9324 14.0165 14.8201 14.2977 14.9243 14.5403L15.1841 15.1452C15.1451 15.1838 15.1068 15.2231 15.0692 15.2631L14.4578 15.0189C14.34 14.9719 14.2084 14.9735 14.0919 15.0236C13.9754 15.0736 13.8835 15.1678 13.8366 15.2856L13.0342 17.2948C12.9363 17.54 13.0557 17.8182 13.3009 17.9161L13.9124 18.1603C13.912 18.2152 13.9127 18.27 13.9145 18.3248L13.3095 18.5846C13.193 18.6346 13.1011 18.7288 13.0541 18.8466C13.0071 18.9643 13.0088 19.096 13.0588 19.2125L13.9124 21.2006C13.9624 21.3171 14.0566 21.409 14.1744 21.4559C14.2921 21.503 14.4238 21.5013 14.5402 21.4513L15.1452 21.1915C15.1837 21.2305 15.223 21.2688 15.2631 21.3064L15.0189 21.9179C14.921 22.1631 15.0404 22.4412 15.2856 22.5391L17.295 23.3415C17.3519 23.3642 17.4121 23.3755 17.4722 23.3755C17.5365 23.3755 17.6007 23.3626 17.6608 23.3368C17.7773 23.2867 17.8692 23.1925 17.9162 23.0747L18.1603 22.4633C18.2151 22.4635 18.27 22.463 18.3248 22.4612L18.5846 23.0662C18.6887 23.3088 18.9698 23.421 19.2125 23.3168L21.2006 22.4633C21.3172 22.4133 21.409 22.319 21.456 22.2013C21.5031 22.0835 21.5013 21.9519 21.4513 21.8354L21.1916 21.2304C21.2306 21.1919 21.2689 21.1527 21.3064 21.1126L21.9179 21.3568C22.163 21.4546 22.4413 21.3352 22.5392 21.09L23.3415 19.0807C23.3886 18.9629 23.3869 18.8313 23.3369 18.7148ZM21.8286 20.2915L21.3446 20.0982C21.148 20.0197 20.9232 20.0798 20.7921 20.246C20.6496 20.4264 20.4882 20.592 20.3123 20.7382C20.1495 20.8736 20.0951 21.1 20.1786 21.2945L20.3842 21.7734L19.2747 22.2497L19.0691 21.7708C18.9856 21.5763 18.7841 21.4599 18.5738 21.4846C18.3466 21.5114 18.1154 21.5144 17.8864 21.4934C17.6756 21.4742 17.4773 21.5957 17.3988 21.7922L17.2056 22.2762L16.0842 21.8285L16.2775 21.3445C16.356 21.1479 16.2959 20.9232 16.1297 20.792C15.9493 20.6495 15.7837 20.4881 15.6375 20.3122C15.5021 20.1494 15.2758 20.0949 15.0812 20.1785L14.6023 20.3841L14.126 19.2746L14.6049 19.069C14.7994 18.9854 14.9159 18.7838 14.8911 18.5736C14.8642 18.3465 14.8613 18.1153 14.8822 17.8863C14.9016 17.6756 14.78 17.4771 14.5834 17.3987L14.0994 17.2055L14.5472 16.0841L15.0312 16.2773C15.2278 16.3558 15.4526 16.2957 15.5837 16.1296C15.7262 15.9491 15.8876 15.7835 16.0635 15.6373C16.2263 15.502 16.2807 15.2757 16.1972 15.0811L15.9916 14.6022L17.1011 14.1259L17.3067 14.6048C17.3903 14.7993 17.5917 14.9157 17.802 14.8909C18.0293 14.8641 18.2605 14.8612 18.4893 14.8821C18.7002 14.9014 18.8985 14.7799 18.977 14.5833L19.1702 14.0993L20.2916 14.547L20.0984 15.0311C20.0199 15.2276 20.08 15.4524 20.2461 15.5835C20.4266 15.726 20.5922 15.8875 20.7384 16.0633C20.8737 16.2261 21.1 16.2806 21.2946 16.197L21.7735 15.9914L22.2498 17.101L21.7709 17.3066C21.5764 17.3901 21.4599 17.5917 21.4847 17.8019C21.5116 18.029 21.5145 18.2602 21.4936 18.4892C21.4742 18.7 21.5958 18.8983 21.7924 18.9769L22.2764 19.1701L21.8286 20.2915Z" fill="#CFCDFF"/>
<path d="M19.0094 16.1305C17.8749 15.6775 16.5837 16.232 16.1307 17.3663C15.6778 18.5007 16.2321 19.7921 17.3665 20.245C17.6351 20.3523 17.9123 20.403 18.1853 20.403C19.0652 20.403 19.8995 19.8751 20.2453 19.0092C20.6982 17.8748 20.1438 16.5835 19.0094 16.1305ZM19.3572 18.6547C19.2325 18.967 18.9937 19.2121 18.6847 19.3447C18.3756 19.4774 18.0335 19.4818 17.721 19.3571C17.0763 19.0996 16.7612 18.3656 17.0186 17.7209C17.2761 17.0761 18.0101 16.7611 18.6548 17.0185C19.2996 17.276 19.6147 18.0099 19.3572 18.6547Z" fill="#CFCDFF"/>
</g>
<defs>
<filter id="filter0_i" x="0" y="0" width="24" height="28" filterUnits="userSpaceOnUse" color-interpolation-filters="sRGB">
<feFlood flood-opacity="0" result="BackgroundImageFix"/>
<feBlend mode="normal" in="SourceGraphic" in2="BackgroundImageFix" result="shape"/>
<feColorMatrix in="SourceAlpha" type="matrix" values="0 0 0 0 0 0 0 0 0 0 0 0 0 0 0 0 0 0 127 0" result="hardAlpha"/>
<feOffset dy="4"/>
<feGaussianBlur stdDeviation="2"/>
<feComposite in2="hardAlpha" operator="arithmetic" k2="-1" k3="1"/>
<feColorMatrix type="matrix" values="0 0 0 0 0 0 0 0 0 0 0 0 0 0 0 0 0 0 0.25 0"/>
<feBlend mode="normal" in2="shape" result="effect1_innerShadow"/>
</filter>
</defs>
</svg>
